<?xml version="1.0" standalone="no"?>
<!DOCTYPE svg PUBLIC "-//W3C//DTD SVG 20010904//EN"
 "http://www.w3.org/TR/2001/REC-SVG-20010904/DTD/svg10.dtd">
<svg version="1.0" xmlns="http://www.w3.org/2000/svg"
 width="2217.000000pt" height="2217.000000pt" viewBox="0 0 2217.000000 2217.000000"
 preserveAspectRatio="xMidYMid meet">
<metadata>
Created by potrace 1.11, written by Peter Selinger 2001-2013
</metadata>
<g transform="translate(0.000000,2217.000000) scale(0.100000,-0.100000)"
fill="#000000" stroke="none">
<path d="M106 12428 c-9 -5 -16 -6 -16 -1 0 4 -18 -10 -39 -31 -25 -25 -37
-44 -34 -54 4 -10 2 -13 -5 -8 -9 5 -11 -292 -8 -1231 2 -681 5 -1246 7 -1255
2 -10 7 -18 11 -18 4 0 8 -6 8 -13 0 -7 15 -27 33 -45 l33 -32 407 0 408 0 24
24 c32 32 66 102 59 120 -3 9 -1 16 4 16 6 0 10 21 9 50 -1 28 2 50 8 50 6 0
3 5 -5 10 -9 6 -10 10 -3 10 8 0 9 9 3 30 -5 17 -5 30 -1 30 5 0 5 18 1 40 -5
27 -4 40 4 40 6 0 4 5 -4 10 -8 5 -10 10 -4 10 8 0 9 13 4 40 -4 22 -4 40 0
40 4 0 4 18 0 40 -4 22 -4 40 1 40 4 0 4 14 -1 30 -5 17 -5 30 -1 30 5 0 5 18
1 40 -5 27 -4 40 4 40 6 0 4 5 -4 10 -8 5 -10 10 -4 10 8 0 9 13 4 40 -4 22
-4 40 -1 40 3 0 4 32 1 70 -3 39 -2 70 2 70 4 0 3 11 -2 25 -7 18 -6 25 3 25
8 0 7 4 -3 10 -9 6 -10 10 -3 10 11 0 10 36 -2 48 -2 3 0 11 6 18 6 8 6 14 0
18 -6 4 -6 18 -1 36 6 20 5 30 -2 30 -7 0 -7 4 1 13 8 10 7 17 -1 25 -9 9 -9
12 2 12 13 0 13 2 0 10 -8 5 -10 10 -4 10 10 0 11 57 0 67 -3 4 -1 12 5 19 6
8 6 14 0 18 -6 4 -6 18 -1 36 5 19 5 30 -1 30 -6 0 -7 4 -4 10 10 16 11 470 0
470 -5 0 -5 4 1 10 6 6 8 31 4 60 -4 28 -3 50 1 50 4 0 4 14 -1 30 -5 17 -5
30 0 30 4 0 4 16 0 34 -4 19 -5 38 -1 41 3 4 6 12 6 18 0 11 448 18 464 7 11
-7 8 -200 -3 -193 -5 4 -6 1 0 -8 13 -21 13 -79 0 -79 -7 0 -7 -3 -1 -8 15
-10 16 -74 2 -91 -7 -9 -8 -12 -1 -8 15 9 15 -165 0 -175 -8 -6 -8 -8 0 -8 6
0 11 -22 11 -55 0 -33 -4 -52 -10 -48 -6 4 -7 1 -1 -8 13 -20 13 -73 0 -81 -8
-6 -8 -8 0 -8 8 0 11 -19 9 -55 -1 -30 2 -52 6 -49 13 7 -2 -30 -15 -38 -8 -5
-8 -8 -1 -8 7 0 11 -43 11 -119 0 -73 -4 -117 -10 -114 -5 4 -6 1 0 -8 13 -20
13 -73 0 -81 -8 -5 -7 -8 1 -8 7 0 10 -12 8 -30 -2 -16 0 -32 6 -35 5 -4 6
-11 2 -17 -9 -16 -10 -348 -1 -342 12 8 -4 -30 -16 -38 -8 -5 -7 -8 1 -8 6 0
10 -9 8 -20 -2 -11 1 -22 6 -26 6 -3 6 -10 1 -17 -5 -7 -8 -20 -7 -29 2 -10
-1 -21 -6 -24 -6 -3 -4 -15 5 -29 12 -17 13 -26 4 -31 -7 -5 -8 -3 -3 6 5 9 4
11 -3 6 -9 -5 -7 -15 6 -34 10 -15 12 -23 4 -18 -9 6 -11 1 -8 -18 3 -16 0
-26 -7 -26 -7 0 -4 -5 7 -11 15 -9 16 -13 5 -20 -8 -5 -9 -9 -3 -9 6 0 10 -10
10 -22 -1 -13 4 -35 11 -50 7 -16 11 -28 8 -28 -3 0 3 -10 15 -22 11 -12 20
-25 20 -30 0 -4 7 -8 16 -8 8 0 12 -4 9 -10 -4 -7 135 -10 410 -10 l417 0 27
28 c40 40 61 94 65 162 1 33 6 63 9 67 4 3 2 13 -5 20 -9 11 -9 17 3 24 9 6
10 12 4 17 -12 8 -13 92 -1 110 4 7 3 12 -1 12 -13 0 -10 93 2 103 7 4 7 10 0
15 -12 8 -13 92 -1 110 4 7 3 12 -1 12 -13 0 -10 93 2 103 7 4 7 10 0 15 -12
8 -13 92 -1 110 4 7 3 12 -1 12 -13 0 -10 93 2 103 7 4 7 10 0 15 -12 8 -13
92 -1 110 4 7 3 12 -1 12 -13 0 -10 93 2 103 7 4 7 10 0 15 -12 8 -13 92 -1
110 4 7 3 12 -1 12 -13 0 -10 93 2 103 7 4 7 10 0 15 -12 8 -13 92 -1 110 4 7
3 12 -1 12 -13 0 -10 93 2 103 7 4 7 10 0 15 -12 8 -13 92 -1 110 4 7 3 12 -1
12 -13 0 -10 93 2 103 7 4 7 10 0 15 -12 8 -13 92 -1 110 4 7 3 12 -2 12 -5 0
-8 10 -7 23 1 12 3 31 4 42 1 19 8 20 233 20 198 0 234 -2 239 -15 3 -8 5
-468 5 -1022 -1 -555 1 -1008 4 -1008 3 0 6 -15 7 -32 2 -18 7 -34 13 -36 5
-2 10 -11 10 -21 0 -17 39 -57 53 -53 4 1 7 -3 7 -8 0 -7 139 -10 413 -10 398
1 414 2 430 21 9 10 17 23 17 28 0 5 7 12 16 15 8 3 12 10 9 16 -3 5 -1 10 5
10 6 0 8 5 5 10 -3 6 -2 10 3 10 5 0 7 11 4 25 -2 14 0 25 5 25 10 0 11 2385
1 2421 -2 10 -10 24 -17 33 -7 9 -10 16 -6 16 4 0 -4 11 -19 25 -25 23 -33 27
-52 24 -4 0 -10 5 -15 12 -6 10 -11 10 -22 0 -11 -8 -17 -9 -22 -1 -5 8 -11 7
-23 -2 -12 -10 -14 -10 -8 0 4 7 2 12 -6 12 -8 0 -20 -6 -27 -12 -8 -7 -11 -8
-8 -2 4 7 -12 11 -48 11 -37 0 -52 -3 -48 -11 3 -6 0 -5 -8 2 -7 6 -17 12 -22
12 -4 0 -5 -6 -1 -12 6 -10 4 -10 -7 0 -7 6 -19 12 -27 12 -8 0 -10 -5 -6 -12
5 -9 2 -9 -9 1 -14 11 -17 11 -17 0 0 -9 -3 -10 -8 -4 -4 6 -18 11 -31 13 -17
3 -21 0 -16 -10 6 -10 5 -11 -6 0 -7 6 -19 12 -27 12 -8 0 -10 -5 -6 -12 5 -9
2 -9 -9 1 -14 11 -17 11 -17 0 0 -10 -3 -10 -8 -3 -9 15 -93 16 -111 1 -12 -9
-13 -9 -7 1 4 7 2 12 -6 12 -8 0 -20 -6 -27 -12 -11 -10 -13 -10 -7 0 4 7 2
12 -6 12 -8 0 -20 -6 -27 -12 -11 -10 -13 -10 -7 0 4 7 2 12 -6 12 -8 0 -20
-6 -27 -12 -11 -10 -13 -10 -7 0 4 7 2 12 -6 12 -8 0 -20 -6 -27 -12 -11 -10
-13 -10 -7 0 4 7 2 12 -6 12 -8 0 -20 -6 -27 -12 -8 -7 -11 -8 -8 -2 4 7 -12
11 -48 11 -37 0 -52 -3 -48 -11 3 -6 0 -5 -8 2 -7 6 -17 12 -22 12 -4 0 -5 -6
-1 -12 6 -10 4 -10 -7 0 -7 6 -19 12 -27 12 -8 0 -10 -5 -6 -12 5 -9 2 -9 -9
1 -14 11 -17 11 -17 0 0 -9 -3 -10 -8 -4 -4 6 -18 11 -31 13 -17 3 -21 0 -16
-10 6 -10 5 -11 -6 0 -7 6 -19 12 -27 12 -8 0 -10 -5 -6 -12 5 -9 2 -9 -9 1
-14 11 -17 11 -17 0 0 -9 -3 -10 -8 -4 -11 15 -92 17 -110 3 -12 -10 -14 -10
-8 0 4 7 2 12 -6 12 -8 0 -20 -6 -27 -12 -11 -10 -13 -10 -7 0 4 7 2 12 -6 12
-8 0 -20 -6 -27 -12 -11 -10 -13 -10 -7 0 4 7 2 12 -6 12 -8 0 -20 -6 -27 -12
-11 -10 -13 -10 -7 0 4 7 2 12 -6 12 -8 0 -20 -6 -27 -12 -11 -10 -13 -10 -7
0 4 7 2 12 -6 12 -8 0 -20 -6 -27 -12 -8 -7 -11 -8 -8 -2 8 15 -95 15 -105 0
-5 -8 -8 -7 -8 2 0 6 -5 12 -11 12 -5 0 -7 -6 -3 -12 6 -10 4 -10 -7 0 -7 6
-19 12 -27 12 -8 0 -10 -5 -6 -12 6 -10 4 -10 -8 0 -13 10 -17 10 -21 0 -4
-10 -6 -10 -6 0 -1 6 -13 12 -27 12 -17 0 -23 -4 -18 -12 6 -10 4 -10 -7 0 -7
6 -19 12 -27 12 -8 0 -10 -5 -6 -12 5 -9 2 -9 -9 1 -14 11 -17 11 -17 0 0 -10
-2 -11 -8 -2 -9 15 -92 15 -111 -1 -12 -8 -13 -8 -7 2 4 7 2 12 -6 12 -8 0
-20 -6 -27 -12 -11 -10 -13 -10 -7 0 4 7 2 12 -6 12 -8 0 -20 -6 -27 -12 -11
-10 -13 -10 -7 0 4 7 2 12 -6 12 -8 0 -20 -6 -27 -12 -11 -10 -13 -10 -7 0 4
7 2 12 -6 12 -8 0 -20 -6 -27 -12 -11 -10 -13 -10 -7 0 4 7 2 12 -6 12 -8 0
-20 -6 -27 -12 -8 -7 -11 -8 -8 -2 8 15 -95 15 -105 0 -5 -8 -8 -7 -8 2 0 6
-5 12 -11 12 -5 0 -7 -6 -3 -12 6 -10 4 -10 -7 0 -7 6 -19 12 -27 12 -8 0 -10
-5 -6 -12 6 -10 4 -10 -8 0 -13 10 -17 10 -21 0 -4 -10 -6 -10 -6 0 -1 6 -13
12 -27 12 -17 0 -23 -4 -18 -12 6 -10 4 -10 -7 0 -7 6 -19 12 -27 12 -8 0 -10
-5 -6 -12 5 -9 2 -9 -9 1 -14 11 -17 11 -17 0 0 -10 -2 -11 -8 -2 -9 15 -92
15 -111 -1 -12 -8 -13 -8 -7 2 4 7 2 12 -6 12 -8 0 -20 -6 -27 -12 -11 -10
-13 -10 -7 0 4 7 2 12 -6 12 -8 0 -20 -6 -27 -12 -11 -10 -13 -10 -7 0 4 7 2
12 -6 12 -8 0 -20 -6 -27 -12 -10 -9 -12 -9 -7 -1 8 14 -50 13 -73 -1 -9 -6
-12 -5 -8 1 9 14 -96 13 -105 -1 -5 -8 -8 -7 -8 2 0 6 -5 12 -11 12 -5 0 -7
-6 -3 -12 6 -10 4 -10 -7 0 -7 6 -19 12 -27 12 -8 0 -10 -5 -6 -12 5 -9 2 -9
-9 1 -14 11 -17 11 -17 0 0 -10 -2 -11 -8 -2 -4 6 -22 11 -39 11 -19 -1 -30
-5 -26 -11 4 -6 1 -7 -8 -1 -21 13 -39 14 -39 1 0 -8 -3 -8 -8 -2 -10 15 -84
17 -76 3 5 -7 2 -8 -7 -3 -23 15 -82 17 -73 4 5 -8 3 -9 -7 -4 -20 13 -88 18
-69 5 8 -5 10 -10 4 -10 -6 0 -14 3 -17 7 -4 3 -23 8 -43 10 -27 3 -34 1 -28
-9 6 -10 5 -11 -7 -1 -12 10 -18 10 -29 0 -9 -8 -11 -9 -6 0 8 15 -56 15 -66
-1 -5 -8 -8 -7 -8 2 0 6 -5 12 -11 12 -5 0 -7 -6 -3 -12 6 -10 4 -10 -7 0 -7
6 -19 12 -27 12 -8 0 -10 -5 -6 -12 5 -9 2 -9 -9 1 -14 11 -17 11 -17 0 0 -9
-3 -10 -8 -4 -4 6 -18 11 -31 13 -17 3 -21 0 -16 -10 6 -10 5 -11 -6 0 -7 6
-19 12 -27 12 -8 0 -10 -5 -6 -12 5 -9 2 -9 -9 1 -14 11 -17 11 -17 0 0 -10
-2 -11 -8 -2 -8 13 -103 14 -126 1z"/>
<path d="M4226 12428 c5 -7 2 -9 -8 -5 -16 6 -61 -36 -51 -47 4 -3 2 -6 -4 -6
-13 0 -14 -11 -16 -180 -1 -80 3 -154 7 -165 5 -11 8 -23 8 -27 -1 -5 2 -8 7
-8 5 0 11 -9 14 -21 3 -12 10 -18 16 -14 6 3 11 2 11 -2 0 -5 329 -9 740 -9
487 1 740 -2 741 -9 6 -91 -2 -569 -9 -574 -6 -3 -340 -6 -744 -5 -810 0 -747
6 -778 -65 -14 -32 -16 -119 -16 -741 1 -665 2 -707 20 -746 10 -22 27 -46 38
-53 16 -10 19 -10 12 1 -6 10 -4 10 9 -1 14 -11 17 -11 17 0 0 9 3 10 8 4 9
-14 95 -14 104 -1 5 7 8 8 8 1 0 -6 9 -11 20 -12 13 -1 18 2 14 10 -5 8 -3 8
7 0 16 -16 33 -17 23 -1 -5 7 -3 8 7 2 23 -14 51 -16 43 -2 -5 8 -3 8 7 2 19
-12 99 -11 99 1 0 7 3 7 8 0 11 -16 34 -17 43 -3 5 7 9 8 9 3 0 -6 9 -11 20
-12 13 -1 18 2 14 9 -5 7 -2 8 7 2 24 -14 51 -16 43 -2 -6 10 -4 10 8 0 11 -9
18 -10 23 -2 3 6 12 7 18 3 18 -11 127 -10 127 2 0 7 3 7 8 0 11 -16 34 -17
43 -3 7 10 9 10 9 0 0 -9 5 -10 19 -3 10 6 21 7 25 4 11 -11 65 -12 72 -2 3 5
11 6 17 2 18 -11 51 -12 64 -1 6 5 14 5 16 1 7 -11 138 -10 156 1 10 6 12 5 7
-2 -4 -7 -1 -12 9 -12 10 0 13 5 9 13 -5 8 -2 8 9 -2 13 -10 20 -11 30 -2 8 6
17 8 21 4 10 -11 50 -11 63 -1 6 5 14 5 16 1 7 -11 138 -10 156 1 10 6 12 5 7
-2 -4 -7 -1 -12 9 -12 10 0 13 5 9 13 -5 8 -2 8 9 -2 13 -10 20 -11 30 -2 8 6
17 8 20 4 11 -10 57 -12 57 -2 0 5 5 9 11 9 5 0 8 -4 4 -9 -3 -6 4 -9 15 -8
11 1 20 6 20 12 0 7 3 7 8 0 9 -14 95 -14 104 -1 5 7 8 7 8 -1 0 -7 5 -13 11
-13 5 0 7 6 3 13 -5 8 -2 8 9 -2 14 -11 17 -11 17 0 0 9 3 10 8 3 9 -13 85
-13 94 1 5 7 8 7 8 0 0 -15 40 -16 40 -2 0 8 3 8 8 2 11 -15 46 -19 36 -4 -5
8 -3 10 7 3 18 -11 69 -12 75 -2 3 5 10 5 16 1 7 -3 31 -8 55 -10 33 -2 42 0
37 10 -6 9 -4 9 7 2 17 -12 39 -13 58 -1 10 6 12 5 7 -2 -4 -7 -1 -12 9 -12
10 0 14 5 9 13 -6 10 -4 10 7 0 17 -16 53 -17 43 -1 -5 7 -3 8 7 3 21 -13 71
-14 101 -2 28 12 58 63 58 102 0 13 6 26 13 29 9 5 9 7 0 12 -9 4 -10 11 -3
24 7 13 6 20 -3 23 -9 4 -8 6 2 6 10 1 11 4 2 15 -8 10 -9 16 -1 21 7 4 7 13
-1 27 -8 15 -8 19 0 14 6 -4 11 -3 11 3 0 5 -5 13 -10 16 -6 4 -7 12 -3 18 10
16 13 57 4 57 -4 0 -8 7 -8 15 0 8 4 12 9 9 4 -3 8 -1 8 5 0 5 -5 13 -10 16
-7 4 -6 14 1 28 9 16 9 22 1 25 -9 3 -9 9 -2 23 8 14 7 19 -1 19 -8 0 -8 4 1
15 9 11 9 15 1 15 -7 0 -9 5 -4 13 12 19 12 37 1 37 -6 0 -5 6 2 15 9 11 9 15
1 15 -7 0 -9 5 -5 12 12 20 14 58 2 58 -6 0 -5 6 3 16 10 13 10 17 0 24 -8 5
-10 13 -5 21 12 20 14 59 2 59 -6 0 -5 7 3 17 11 13 11 17 2 20 -10 4 -10 10
-2 25 9 16 8 19 -3 12 -11 -6 -11 -5 1 9 9 12 10 17 2 17 -9 0 -9 5 -1 20 8
15 8 20 -1 20 -8 0 -8 4 1 15 9 11 9 15 1 15 -7 0 -9 5 -5 12 12 20 14 58 2
58 -6 0 -5 6 3 16 7 9 9 18 3 22 -11 8 -11 32 -1 49 4 6 3 14 -3 18 -6 4 -7
12 -3 18 10 17 11 47 1 47 -5 0 -6 5 -2 12 12 20 14 58 2 58 -6 0 -5 6 3 16 7
9 9 18 3 22 -11 8 -11 32 -1 49 4 6 3 14 -3 18 -6 4 -7 12 -3 18 10 17 11 47
1 47 -5 0 -6 5 -2 12 13 21 13 58 1 58 -7 0 -6 4 3 10 13 9 13 10 0 10 -13 0
-13 1 0 10 11 7 11 10 2 10 -8 0 -10 5 -6 12 12 19 12 48 0 48 -6 0 -4 5 4 10
11 7 11 10 2 10 -8 0 -10 5 -6 12 12 19 12 48 0 48 -6 0 -4 5 4 10 11 7 11 10
2 10 -8 0 -10 5 -6 12 12 19 12 48 0 48 -6 0 -4 5 4 10 11 7 11 10 2 10 -8 0
-10 5 -6 12 11 18 12 48 2 48 -5 0 -4 9 2 20 8 15 8 20 -1 20 -8 0 -8 4 1 15
9 11 9 15 1 15 -7 0 -9 5 -5 12 12 20 14 58 2 58 -6 0 -5 6 3 16 7 9 9 18 3
22 -11 8 -11 32 -1 49 4 6 3 14 -3 18 -6 4 -7 12 -3 18 11 19 13 58 1 51 -5
-4 -4 4 2 17 10 17 10 24 2 27 -9 3 -9 9 -2 23 8 14 7 19 -2 19 -9 0 -9 3 0
12 15 15 16 32 1 22 -7 -4 -6 2 1 17 10 17 10 24 2 27 -9 3 -9 9 -2 23 8 14 7
19 -2 19 -9 0 -9 3 0 12 15 15 16 32 1 22 -7 -4 -6 2 1 17 10 17 10 24 1 27
-6 2 -9 8 -5 13 11 19 12 49 1 49 -7 0 -6 4 3 10 12 8 12 10 1 10 -9 0 -12 8
-9 25 4 16 0 29 -10 34 -8 4 -13 14 -10 22 8 24 -28 48 -85 55 -20 3 -26 0
-21 -9 5 -9 4 -9 -7 1 -17 15 -53 16 -43 0 5 -7 3 -8 -7 -3 -7 5 -28 10 -47
12 -25 3 -32 1 -26 -9 6 -10 5 -10 -8 0 -11 9 -18 10 -23 2 -3 -6 -12 -7 -18
-3 -6 4 -26 8 -45 10 -25 3 -32 1 -26 -9 6 -10 5 -11 -7 -1 -12 10 -18 10 -29
0 -9 -8 -11 -9 -6 0 8 15 -56 15 -66 -1 -5 -8 -8 -7 -8 2 0 6 -5 12 -11 12 -5
0 -7 -6 -3 -12 6 -10 4 -10 -7 0 -16 14 -43 16 -34 2 3 -5 1 -10 -4 -10 -6 0
-11 5 -11 10 0 6 -9 10 -21 10 -13 0 -18 -4 -13 -12 6 -10 4 -10 -7 0 -7 6
-17 12 -22 12 -4 0 -5 -6 -1 -12 6 -10 4 -10 -7 0 -7 6 -19 12 -27 12 -8 0
-10 -5 -6 -12 5 -9 2 -9 -9 1 -14 11 -17 11 -17 0 0 -9 -3 -10 -8 -3 -8 13
-131 13 -151 0 -10 -6 -12 -6 -7 2 8 13 -51 11 -73 -2 -9 -6 -12 -5 -7 2 8 13
-51 11 -73 -2 -9 -6 -12 -5 -8 1 4 6 -15 10 -48 10 -37 0 -52 -3 -48 -11 3 -6
0 -5 -8 2 -7 6 -17 12 -22 12 -4 0 -5 -6 -1 -12 6 -10 4 -10 -7 0 -7 6 -19 12
-27 12 -8 0 -10 -5 -6 -12 5 -9 2 -9 -9 1 -14 11 -17 11 -17 0 0 -9 -3 -10 -8
-4 -4 6 -18 11 -31 13 -17 3 -21 0 -16 -10 6 -10 5 -11 -6 0 -7 6 -19 12 -27
12 -8 0 -10 -5 -6 -12 5 -9 2 -9 -9 1 -14 11 -17 11 -17 0 0 -9 -3 -10 -8 -4
-11 15 -92 17 -110 3 -12 -10 -14 -10 -8 0 4 7 2 12 -6 12 -8 0 -20 -6 -27
-12 -11 -10 -13 -10 -7 0 4 7 2 12 -6 12 -8 0 -20 -6 -27 -12 -11 -10 -13 -10
-7 0 4 7 2 12 -6 12 -8 0 -20 -6 -27 -12 -11 -10 -13 -10 -7 0 4 7 2 12 -6 12
-8 0 -20 -6 -27 -12 -11 -10 -13 -10 -7 0 4 7 2 12 -6 12 -8 0 -20 -6 -27 -12
-11 -10 -13 -10 -7 0 4 7 2 12 -6 12 -8 0 -20 -6 -27 -12 -10 -9 -12 -9 -7 -1
8 15 -56 15 -66 -1 -5 -8 -8 -7 -8 2 0 6 -5 12 -11 12 -5 0 -7 -6 -3 -12 6
-10 4 -10 -7 0 -16 14 -43 16 -34 2 3 -5 1 -10 -4 -10 -6 0 -11 5 -11 10 0 6
-9 10 -21 10 -13 0 -18 -4 -13 -12 6 -10 4 -10 -7 0 -7 6 -17 12 -22 12 -4 0
-5 -6 -1 -12 6 -10 4 -10 -7 0 -16 14 -43 16 -34 2 3 -5 1 -10 -4 -10 -6 0
-11 5 -11 10 0 6 -9 10 -21 10 -13 0 -18 -4 -13 -12 6 -10 4 -10 -7 0 -16 15
-33 16 -24 1 4 -6 -2 -5 -14 3 -17 11 -25 11 -42 0 -12 -8 -18 -9 -14 -3 9 15
-18 14 -34 -1 -11 -10 -13 -10 -7 0 4 7 2 12 -6 12 -8 0 -20 -6 -27 -12 -11
-10 -13 -10 -7 0 4 7 2 12 -6 12 -8 0 -20 -6 -27 -12 -11 -10 -13 -10 -7 0 4
7 2 12 -6 12 -8 0 -20 -6 -27 -12 -11 -10 -13 -10 -7 0 4 7 2 12 -6 12 -8 0
-20 -6 -27 -12 -8 -7 -11 -8 -8 -2 9 15 -95 16 -105 1 -6 -9 -8 -9 -8 1 0 6
-5 12 -11 12 -5 0 -7 -6 -3 -12 6 -10 4 -10 -7 0 -17 15 -43 16 -33 0z m1464
-1557 c7 -2 3 -621 -4 -629 -10 -9 -457 -8 -463 2 -3 4 -8 4 -12 -2 -3 -6 -17
-8 -31 -5 l-26 5 0 118 c0 71 4 116 10 113 5 -4 6 -1 0 8 -13 20 -13 113 0
121 8 6 8 8 0 8 -12 0 -13 168 -1 187 4 6 3 14 -1 17 -8 5 -9 32 -3 56 1 5
513 5 531 1z"/>
<path d="M7290 12435 c0 -7 -61 -10 -168 -11 -160 0 -169 -1 -192 -22 -13 -12
-20 -22 -14 -22 5 0 1 -5 -9 -11 -9 -6 -15 -14 -12 -20 4 -5 2 -9 -3 -9 -5 0
-13 -15 -18 -32 -10 -41 -13 -2488 -3 -2488 4 0 12 -13 18 -30 6 -18 17 -30
28 -30 15 0 16 -2 3 -10 -10 -6 414 -10 1205 -10 l1220 0 28 24 c16 14 28 27
28 30 -1 3 -1 7 0 9 4 15 10 45 11 57 0 8 5 21 11 28 6 8 6 12 -2 12 -7 0 -8
8 -1 25 6 17 6 25 -1 25 -6 0 -7 5 -3 12 10 15 11 78 1 78 -4 0 -3 9 3 20 6
11 7 20 3 20 -5 0 -10 12 -11 28 -4 57 -50 130 -73 116 -5 -3 -9 1 -9 8 0 8
-3 9 -8 3 -10 -14 -72 -15 -72 -1 0 6 -5 4 -10 -4 -8 -12 -10 -12 -10 -1 0 11
-3 11 -17 0 -15 -12 -16 -12 -8 1 8 13 7 13 -9 1 -10 -9 -20 -11 -24 -5 -8 11
-32 11 -49 1 -7 -5 -13 -4 -13 2 0 7 -8 7 -25 1 -16 -6 -25 -6 -25 1 0 6 -7 6
-20 -1 -14 -8 -20 -8 -20 0 0 7 -7 7 -21 -1 -15 -8 -24 -8 -28 -1 -4 7 -12 7
-20 2 -8 -4 -24 -4 -36 0 -14 5 -27 4 -34 -3 -8 -8 -11 -8 -11 1 0 8 -7 9 -25
2 -16 -6 -25 -6 -25 1 0 6 -8 6 -21 -2 -16 -8 -23 -8 -29 1 -6 9 -9 9 -13 -1
-5 -12 -6 -12 -6 0 -1 11 -4 11 -18 0 -15 -12 -16 -12 -8 1 8 13 7 13 -9 1
-14 -12 -19 -12 -26 -2 -5 8 -13 10 -21 5 -19 -11 -49 -13 -49 -2 0 5 -10 4
-21 -3 -17 -8 -23 -8 -29 1 -5 8 -13 9 -21 4 -21 -13 -39 -13 -39 -1 0 7 -5 5
-10 -3 -8 -12 -10 -12 -10 -1 0 11 -3 11 -15 1 -11 -9 -15 -9 -15 -1 0 9 -5 9
-21 0 -17 -8 -23 -8 -29 1 -5 8 -13 9 -21 4 -21 -13 -39 -13 -39 -1 0 7 -5 5
-10 -3 -9 -13 -10 -13 -10 0 0 13 -1 13 -10 0 -6 -10 -10 -11 -10 -3 0 9 -7
10 -25 3 -16 -6 -25 -6 -25 1 0 6 -7 6 -20 -1 -14 -8 -20 -8 -20 0 0 7 -7 7
-21 -1 -17 -9 -23 -8 -30 2 -7 11 -9 11 -9 -1 0 -9 -3 -11 -8 -5 -9 12 -36 19
-28 7 3 -5 -8 -9 -24 -8 -17 1 -30 4 -30 8 0 4 -11 3 -25 -2 -17 -7 -25 -6
-25 1 0 8 -5 7 -15 -1 -10 -8 -15 -9 -15 -1 0 7 -8 8 -25 1 -17 -7 -25 -6 -25
1 0 8 -5 7 -15 -1 -12 -10 -15 -10 -15 1 0 11 -2 11 -10 -1 -7 -11 -10 -11
-10 -2 0 7 -5 10 -12 6 -8 -5 -9 0 -6 14 4 13 1 22 -5 22 -8 0 -8 3 -2 8 12 8
13 27 3 37 -4 4 -3 16 3 26 7 14 6 19 -3 19 -8 0 -9 3 -3 8 6 4 10 39 10 77 0
39 -4 73 -10 77 -7 5 -7 8 0 8 6 0 10 29 10 67 0 38 -4 71 -10 75 -6 5 -6 8 2
8 12 0 12 17 0 37 -4 6 -3 14 3 18 5 3 10 11 10 16 0 6 -5 7 -11 3 -8 -4 -8 0
0 15 9 16 9 21 -1 21 -8 0 -9 3 -3 8 6 4 10 104 10 262 0 158 -4 258 -10 262
-7 5 -7 8 0 8 6 0 10 32 10 75 0 43 -4 75 -10 75 -7 0 -7 3 0 8 6 4 10 36 10
72 0 36 -4 68 -10 72 -6 5 -6 8 2 8 12 0 12 17 0 37 -4 6 -3 14 3 18 5 3 10
11 10 16 0 6 -5 7 -11 3 -8 -5 -8 -1 0 14 8 15 8 22 -2 25 -6 3 -7 6 -2 6 11
1 11 442 1 494 -3 15 -8 38 -10 51 -7 40 -67 122 -80 109 -3 -4 -6 -2 -6 3 0
5 -87 9 -205 9 -130 0 -205 4 -205 10 0 6 -3 5 -8 -1 -4 -6 -16 -11 -27 -11
-11 0 -23 5 -27 11 -5 7 -8 7 -8 1z"/>
<path d="M9826 12433 c-4 -5 -43 -8 -87 -8 -76 -1 -80 -2 -114 -35 -20 -19
-33 -40 -31 -47 3 -7 2 -13 -3 -13 -25 0 -27 -123 -27 -1280 1 -927 4 -1220
13 -1236 7 -12 9 -25 5 -29 -4 -5 -1 -5 6 -1 7 4 12 2 12 -6 0 -38 0 -38 1247
-38 l1208 1 22 24 c12 14 18 25 15 25 -4 0 -2 4 5 8 7 4 13 22 15 40 1 18 5
32 9 32 9 0 6 27 -4 36 -3 4 -2 15 4 25 7 14 6 19 -3 19 -9 0 -10 3 -2 8 9 6
12 54 4 72 -1 3 -1 10 0 15 9 42 9 55 0 55 -5 0 -10 12 -10 28 0 15 -9 42 -20
60 -18 29 -25 34 -46 31 -4 0 -11 5 -15 13 -5 7 -9 8 -9 2 0 -6 -7 -11 -15
-11 -8 0 -15 3 -15 7 0 4 -7 7 -15 7 -8 0 -12 -3 -10 -7 2 -4 -9 -7 -25 -6
-17 1 -30 4 -30 8 0 4 -11 3 -25 -2 -17 -7 -25 -6 -25 1 0 8 -5 7 -15 -1 -10
-8 -15 -9 -15 -1 0 7 -8 8 -25 1 -16 -6 -25 -6 -25 1 0 6 -7 6 -20 -1 -14 -8
-20 -8 -20 0 0 7 -7 7 -21 -1 -17 -9 -23 -8 -30 2 -7 11 -9 11 -9 -1 0 -9 -3
-11 -8 -5 -9 12 -36 19 -28 7 3 -5 -8 -9 -24 -8 -17 1 -30 4 -30 8 0 4 -11 3
-25 -2 -16 -6 -25 -6 -25 1 0 6 -8 6 -21 -2 -16 -8 -23 -8 -29 1 -6 9 -9 9
-13 -1 -5 -12 -6 -12 -6 0 -1 11 -4 11 -18 0 -15 -12 -16 -12 -8 1 8 13 7 13
-9 1 -14 -12 -19 -12 -26 -2 -5 9 -13 10 -21 5 -20 -12 -39 -14 -39 -3 0 5
-11 4 -25 -1 -16 -6 -25 -6 -25 1 0 6 -7 6 -20 -1 -14 -8 -20 -8 -20 0 0 7 -7
7 -21 -1 -17 -9 -23 -8 -30 2 -6 11 -11 11 -20 2 -7 -7 -19 -9 -34 -3 -14 5
-27 4 -34 -3 -8 -8 -11 -8 -11 1 0 8 -7 9 -25 2 -16 -6 -25 -6 -25 1 0 6 -8 6
-21 -2 -16 -8 -23 -8 -29 1 -6 9 -9 9 -13 -1 -5 -12 -6 -12 -6 0 -1 11 -4 11
-18 0 -15 -12 -16 -12 -8 1 8 13 7 13 -9 1 -14 -12 -19 -12 -26 -2 -5 8 -13
10 -21 5 -21 -13 -59 -14 -59 -1 0 7 -4 6 -10 -3 -8 -12 -10 -12 -10 -1 0 11
-3 11 -17 0 -15 -12 -16 -12 -8 1 8 13 7 13 -9 1 -10 -9 -20 -11 -24 -5 -8 11
-32 11 -49 1 -7 -5 -13 -4 -13 2 0 7 -8 7 -25 1 -14 -5 -25 -6 -25 -2 0 9 -42
8 -57 -1 -6 -4 -15 -1 -20 6 -6 7 -9 417 -9 1020 1 554 -2 1007 -6 1007 -3 0
-5 8 -4 18 2 9 0 19 -4 22 -5 3 -10 16 -11 30 -2 14 -19 41 -38 60 l-34 34
-276 1 c-152 0 -282 5 -290 9 -9 6 -12 5 -8 -1 4 -6 -4 -10 -18 -10 -14 0 -28
3 -31 8 -6 11 -18 12 -28 2z"/>
<path d="M12279 12421 c-18 -21 -32 -62 -35 -106 -1 -16 -4 -37 -7 -45 -8 -23
-5 -50 7 -50 5 0 1 -7 -10 -16 -10 -8 -14 -13 -8 -10 7 3 14 -3 17 -14 3 -10
0 -21 -7 -23 -8 -3 -8 -8 1 -19 10 -11 10 -17 1 -26 -7 -7 -8 -12 -4 -12 5 0
3 -7 -4 -16 -8 -8 -9 -14 -4 -13 21 4 26 -2 14 -16 -9 -11 -10 -18 -1 -28 6
-8 8 -17 4 -21 -12 -12 -11 -60 1 -68 8 -6 7 -8 -1 -8 -7 0 -13 -5 -13 -11 0
-5 5 -7 12 -3 7 5 8 3 2 -7 -12 -21 -13 -59 0 -59 7 0 7 -3 1 -8 -14 -10 -15
-56 -2 -64 7 -4 6 -12 -3 -23 -12 -14 -12 -18 1 -26 8 -5 9 -9 3 -9 -6 0 -11
-11 -11 -25 0 -16 4 -22 11 -18 6 4 5 0 -2 -9 -9 -12 -10 -18 -2 -23 7 -4 8
-11 2 -18 -12 -16 -11 -47 2 -47 5 0 1 -7 -10 -16 -10 -8 -14 -13 -8 -10 7 3
14 -3 17 -14 3 -10 0 -21 -7 -23 -8 -3 -8 -8 1 -19 10 -11 10 -17 1 -26 -7 -7
-8 -12 -4 -12 5 0 3 -7 -4 -16 -8 -8 -9 -14 -4 -13 21 4 26 -2 14 -16 -9 -11
-10 -18 -1 -28 6 -8 8 -17 4 -21 -12 -12 -11 -60 1 -68 7 -5 4 -8 -7 -8 -17 0
-17 -1 -2 -16 9 -10 13 -20 8 -23 -14 -10 -16 -44 -2 -35 8 5 9 3 3 -7 -12
-20 -13 -63 -1 -71 7 -4 6 -12 -3 -23 -12 -14 -12 -18 1 -26 8 -5 9 -9 3 -9
-6 0 -11 -11 -11 -25 0 -16 4 -22 11 -18 6 4 5 0 -2 -9 -9 -12 -10 -18 -2 -23
7 -4 8 -11 2 -18 -12 -16 -11 -47 2 -47 5 0 1 -7 -10 -16 -10 -8 -14 -13 -8
-10 7 3 14 -3 17 -14 3 -10 0 -21 -7 -23 -8 -3 -8 -8 1 -19 10 -11 10 -17 1
-26 -7 -7 -8 -12 -4 -12 5 0 3 -7 -4 -16 -8 -8 -9 -14 -4 -13 21 4 26 -2 14
-16 -9 -11 -10 -18 -1 -28 6 -8 8 -17 4 -21 -11 -11 -12 -66 -2 -66 6 0 7 -6
2 -12 -12 -20 -13 -40 -3 -58 5 -10 6 -21 2 -24 -10 -10 -11 -67 -2 -61 10 6
8 -15 -3 -32 -4 -6 -3 -14 3 -18 6 -4 7 -12 3 -18 -12 -18 -12 -77 -1 -77 7 0
7 -4 1 -12 -13 -17 -13 -48 1 -48 5 0 1 -7 -10 -16 -10 -8 -14 -13 -8 -10 7 3
14 -3 17 -14 3 -10 0 -21 -7 -23 -8 -3 -8 -8 1 -19 10 -11 10 -17 1 -26 -7 -7
-8 -12 -4 -12 5 0 3 -7 -4 -16 -8 -8 -9 -14 -4 -13 21 4 26 -2 14 -16 -9 -11
-10 -18 -1 -28 6 -8 8 -17 4 -21 -11 -11 -12 -66 -1 -66 7 0 7 -4 0 -13 -12
-14 -11 -35 2 -56 6 -9 5 -12 -1 -8 -6 4 -10 -4 -10 -18 0 -14 4 -22 9 -19 6
4 5 -3 -1 -15 -8 -15 -8 -21 -1 -21 6 0 10 -6 8 -12 -4 -23 12 -68 34 -93 l21
-25 1212 0 c1204 0 1211 0 1233 20 12 11 25 32 28 45 3 14 9 25 13 25 3 0 6
68 5 151 -1 135 -4 154 -24 195 -21 41 -34 49 -67 45 -7 -1 -13 4 -13 11 0 9
-3 9 -10 -2 -8 -12 -10 -12 -10 -1 0 11 -3 11 -17 0 -15 -12 -16 -12 -8 1 8
13 7 13 -9 1 -14 -12 -19 -12 -26 -2 -5 9 -13 10 -21 5 -20 -12 -39 -14 -39
-3 0 5 -11 4 -25 -1 -16 -6 -25 -6 -25 1 0 6 -7 6 -20 -1 -14 -8 -20 -8 -20 0
0 7 -7 7 -21 -1 -15 -8 -24 -8 -28 -1 -4 7 -12 7 -20 2 -8 -4 -24 -4 -36 0
-14 5 -27 4 -34 -3 -8 -8 -11 -8 -11 1 0 8 -7 9 -25 2 -16 -6 -25 -6 -25 1 0
6 -8 6 -21 -2 -16 -8 -23 -8 -29 1 -6 9 -9 9 -13 -1 -5 -12 -6 -12 -6 0 -1 11
-4 11 -18 0 -15 -12 -16 -12 -8 1 8 13 7 13 -9 1 -14 -12 -19 -12 -26 -2 -5 9
-13 10 -21 5 -20 -12 -39 -14 -39 -3 0 5 -11 4 -25 -1 -16 -6 -25 -6 -25 1 0
6 -7 6 -20 -1 -14 -8 -20 -8 -20 0 0 7 -7 7 -21 -1 -17 -9 -23 -8 -30 2 -7 11
-9 11 -9 -1 0 -9 -3 -11 -8 -5 -9 12 -36 19 -28 7 3 -5 -8 -9 -24 -8 -17 1
-30 4 -30 8 0 4 -11 3 -25 -2 -17 -7 -25 -6 -25 1 0 8 -5 7 -15 -1 -10 -8 -15
-9 -15 -1 0 7 -8 8 -25 1 -16 -6 -25 -6 -25 1 0 6 -7 6 -20 -1 -14 -8 -20 -8
-20 0 0 7 -7 7 -21 -1 -12 -6 -24 -7 -28 -3 -7 11 -41 15 -41 5 0 -4 -13 -7
-30 -6 -16 0 -30 3 -30 7 0 4 -11 3 -25 -2 -16 -6 -25 -6 -25 1 0 6 -7 6 -20
-1 -14 -8 -20 -8 -20 0 0 7 -7 7 -21 -1 -17 -8 -23 -8 -29 1 -5 8 -13 9 -21 4
-21 -13 -39 -13 -39 -1 0 7 -5 5 -10 -3 -8 -12 -10 -12 -10 -1 0 10 -3 11 -14
2 -11 -9 -16 -9 -21 0 -12 18 -12 468 0 473 7 3 7 5 0 5 -14 1 -10 110 4 124
8 8 11 8 11 -1 0 -10 5 -10 20 -2 12 6 20 7 20 1 0 -10 19 -10 35 1 6 4 17 3
25 -2 7 -4 24 -4 37 1 12 5 23 5 23 1 0 -9 42 -8 57 1 7 4 15 3 18 -3 5 -8 11
-7 21 1 11 9 14 9 14 -1 0 -10 3 -10 15 0 8 7 15 8 15 3 0 -11 29 -11 48 1 6
4 12 3 12 -2 0 -10 54 -7 71 3 5 4 9 2 9 -4 0 -10 19 -9 38 2 7 5 12 3 12 -3
0 -8 6 -7 21 1 17 8 23 8 29 -1 5 -8 13 -9 21 -4 18 11 39 14 39 6 0 -9 83 -7
98 2 6 3 14 2 17 -4 5 -8 11 -7 21 1 11 9 14 9 14 0 0 -9 5 -9 21 0 17 9 20 8
14 -2 -5 -8 -4 -10 3 -5 19 11 52 16 52 7 0 -9 55 -5 71 4 5 4 9 2 9 -4 0 -10
19 -9 38 2 7 5 12 3 12 -3 0 -8 6 -7 21 1 12 6 24 7 28 3 7 -11 41 -15 41 -5
0 4 9 7 20 7 11 0 20 -3 20 -6 0 -4 7 -7 15 -7 8 0 15 3 15 7 0 4 7 7 15 7 8
0 15 -3 15 -7 0 -8 56 -3 71 5 5 4 9 2 9 -4 0 -10 25 -9 36 2 4 4 13 2 21 -4
10 -9 13 -8 13 2 0 11 2 11 10 -1 8 -12 10 -12 10 -1 0 10 3 11 13 2 8 -6 17
-7 21 -3 11 10 30 9 38 -3 5 -6 8 -4 8 5 0 12 2 12 9 1 7 -11 14 -10 37 5 26
16 46 39 50 54 0 3 4 13 9 23 4 10 8 39 8 65 1 26 6 50 12 54 6 5 6 8 -2 8 -7
0 -13 5 -13 11 0 5 5 7 12 3 7 -5 8 -3 2 7 -13 21 -14 169 0 169 7 0 7 3 1 8
-14 10 -14 95 -1 104 8 5 8 8 0 8 -14 0 -13 142 1 152 7 5 7 8 -1 8 -6 0 -10
26 -10 64 0 38 4 62 10 59 5 -4 6 -1 0 8 -13 20 -12 179 0 179 8 0 8 3 1 8
-15 10 -15 312 0 312 6 0 6 3 -1 8 -13 9 -13 105 1 114 6 5 6 8 0 8 -5 0 -11
21 -13 48 -1 26 -7 49 -12 50 -6 2 -8 8 -5 12 3 5 -4 21 -16 35 l-23 25 -1220
-1 c-1155 -1 -1222 -2 -1237 -18z m1491 -467 c11 -3 15 -19 14 -67 0 -35 -4
-69 -8 -75 -4 -7 -3 -12 1 -12 10 0 9 -132 -1 -149 -4 -6 -2 -11 3 -11 13 0
10 -42 -4 -52 -7 -5 -6 -8 0 -8 6 0 11 -9 12 -20 1 -13 -2 -18 -9 -14 -7 5 -8
2 -2 -7 13 -21 14 -39 2 -39 -6 0 -5 -6 2 -15 10 -12 10 -15 -1 -15 -9 0 -10
-3 -4 -8 15 -11 19 -46 4 -36 -8 5 -9 3 -3 -7 13 -21 14 -39 2 -39 -7 0 -7 -5
-1 -12 5 -7 9 -20 9 -28 -1 -13 -37 -15 -261 -15 -162 0 -263 -4 -267 -10 -4
-5 -8 1 -9 15 -1 14 -2 34 -3 45 0 11 3 28 7 39 5 10 5 16 0 13 -10 -6 -9 376
2 393 5 8 4 11 -2 7 -12 -8 -10 54 3 74 5 8 3 9 -6 4 -10 -6 -12 -4 -7 9 4 10
7 23 7 31 0 10 52 13 253 13 138 0 259 -1 267 -4z"/>
<path d="M15306 11781 c-3 -5 -19 -7 -36 -5 -19 2 -30 -1 -30 -9 0 -8 -3 -9
-8 -1 -6 9 -66 12 -82 4 -3 -1 -13 -2 -22 -1 -9 1 -19 -7 -23 -19 -3 -11 -11
-20 -16 -20 -5 0 -9 -9 -9 -20 0 -11 -4 -20 -9 -20 -6 0 -8 -9 -6 -20 2 -11 0
-20 -4 -20 -10 0 -7 -102 3 -119 7 -11 5 -13 -6 -8 -13 5 -15 1 -9 -21 5 -15
7 -36 5 -46 -1 -11 2 -28 8 -39 8 -16 8 -19 -5 -14 -12 5 -14 0 -8 -21 3 -15
6 -144 5 -287 -1 -153 3 -268 9 -279 7 -15 6 -18 -6 -13 -12 5 -14 1 -8 -21 5
-15 7 -36 5 -46 -1 -11 2 -28 8 -39 8 -16 8 -19 -5 -14 -12 5 -14 1 -8 -21 5
-15 7 -36 5 -46 -1 -11 2 -28 8 -39 8 -16 8 -19 -5 -14 -12 5 -14 1 -8 -21 5
-15 7 -36 5 -46 -1 -11 2 -28 8 -39 9 -17 8 -19 -6 -14 -12 5 -15 3 -10 -5 4
-6 8 -136 9 -287 1 -152 5 -284 9 -294 5 -10 6 -21 2 -24 -3 -4 1 -15 11 -25
9 -10 13 -18 10 -18 -4 0 3 -11 15 -25 l22 -25 318 0 c210 0 317 3 313 10 -3
6 0 10 7 10 16 0 48 50 48 74 0 9 3 16 8 16 4 0 7 145 7 323 l0 322 302 1 301
1 5 -23 c2 -13 2 -26 -1 -29 -7 -7 -5 -133 3 -145 3 -5 2 -10 -2 -10 -12 0
-10 -53 2 -62 7 -5 6 -8 0 -8 -6 0 -11 -13 -10 -30 0 -16 4 -30 8 -30 5 0 5
-5 1 -12 -10 -16 -11 -68 -1 -68 5 0 5 -5 1 -11 -9 -16 -11 -109 -1 -109 5 0
5 -6 1 -12 -9 -14 -6 -78 5 -93 3 -5 6 -19 6 -30 0 -11 13 -35 29 -52 l29 -33
301 0 c166 0 311 3 324 6 12 4 22 13 22 20 0 8 5 14 10 14 6 0 10 7 10 15 0 8
4 15 8 15 5 0 9 6 10 13 3 39 13 111 17 115 2 2 0 14 -5 26 -4 13 -4 29 1 39
6 9 6 17 2 17 -4 0 -8 16 -8 35 0 19 4 35 8 35 5 0 5 6 0 13 -10 16 -10 38 0
60 4 9 4 17 0 17 -4 0 -8 16 -8 35 0 19 4 35 8 35 5 0 5 6 0 13 -10 16 -10 38
0 60 4 9 4 17 0 17 -4 0 -8 16 -8 35 0 19 4 35 8 35 5 0 5 6 0 13 -10 16 -10
38 0 60 4 9 4 17 0 17 -4 0 -8 16 -8 35 0 19 4 35 8 35 5 0 5 6 1 12 -5 7 -7
38 -6 68 3 66 3 65 0 110 -1 20 1 41 6 48 4 7 3 12 -1 12 -10 0 -9 53 2 69 3
6 2 11 -3 11 -5 0 -7 12 -5 28 5 31 5 38 0 72 -2 14 1 33 5 43 5 9 5 17 0 17
-9 0 -8 53 3 69 3 6 3 11 -2 11 -4 0 -8 14 -8 30 0 17 4 30 8 30 5 0 5 5 1 11
-10 16 -11 149 -1 149 5 0 5 5 1 12 -4 7 -8 24 -8 38 0 14 4 31 8 38 4 7 3 12
-1 12 -10 0 -9 53 2 69 3 6 3 11 -2 11 -4 0 -8 15 -8 34 0 19 3 32 8 29 4 -2
7 1 7 6 0 6 -4 11 -9 11 -6 0 -8 9 -6 20 2 11 0 22 -6 25 -5 4 -9 15 -9 25 0
10 -7 25 -15 34 -8 8 -15 19 -15 24 0 5 -12 14 -26 20 -19 9 -24 9 -18 1 5 -8
3 -9 -7 -3 -18 11 -198 13 -205 2 -3 -5 -11 -5 -17 -1 -20 13 -49 14 -62 3 -8
-6 -16 -7 -19 -2 -6 10 -61 10 -71 0 -11 -10 -36 3 -28 15 4 6 1 7 -8 1 -8 -4
-27 -9 -44 -9 -16 0 -35 -4 -42 -8 -6 -4 -19 0 -27 9 -9 9 -16 11 -16 4 0 -6
-4 -9 -9 -6 -5 3 -22 1 -38 -5 -33 -11 -70 -67 -75 -114 -2 -16 -7 -33 -12
-36 -4 -4 -3 -16 3 -27 8 -15 8 -23 0 -28 -8 -4 -7 -9 2 -15 8 -5 9 -9 3 -9
-6 0 -11 -13 -10 -30 1 -16 5 -30 11 -30 5 0 4 -5 -2 -11 -8 -8 -8 -20 -3 -35
5 -13 6 -24 2 -24 -11 0 -9 -54 3 -62 7 -5 6 -8 -1 -8 -11 0 -12 -59 -1 -77 4
-6 4 -13 0 -17 -8 -8 -6 -133 2 -146 3 -5 2 -10 -2 -10 -12 0 -10 -53 2 -62 6
-5 6 -8 -1 -8 -11 0 -11 -60 0 -78 3 -6 1 -14 -5 -18 -8 -4 -7 -9 2 -15 12 -7
12 -9 0 -9 -8 0 -11 -6 -7 -16 4 -12 0 -15 -17 -13 -12 2 -28 0 -34 -4 -8 -5
-13 -3 -13 3 0 6 -5 8 -11 5 -16 -10 -59 -13 -59 -5 0 10 -20 8 -37 -3 -8 -5
-13 -3 -13 3 0 7 -7 7 -22 -1 -15 -8 -23 -9 -26 -1 -2 7 -13 7 -33 2 -16 -5
-29 -5 -29 0 0 10 -19 8 -37 -3 -8 -5 -13 -3 -13 3 0 8 -6 7 -21 -1 -12 -6
-24 -7 -28 -3 -7 11 -42 11 -59 1 -7 -5 -12 -3 -12 3 0 8 -6 8 -20 0 -15 -8
-20 -8 -20 2 0 8 -3 9 -8 3 -8 -12 -42 -16 -42 -5 0 4 -10 7 -22 6 l-23 -1 -1
375 c-1 397 -4 448 -31 468 -9 6 -13 12 -8 12 4 0 -2 9 -15 20 -12 11 -27 17
-31 14 -5 -3 -9 -1 -9 4 0 11 -90 10 -107 -1 -9 -6 -13 -2 -13 10 0 10 -4 14
-8 8 -4 -5 -36 -10 -72 -9 -36 0 -71 -4 -79 -10 -11 -8 -13 -8 -8 1 8 13 -50
13 -71 -1 -8 -5 -18 -4 -24 2 -6 6 -17 8 -26 5 -10 -4 -13 -2 -8 5 4 7 5 12 2
12 -3 0 -7 -4 -10 -9z"/>
<path d="M17365 11768 c-18 -10 -39 -35 -40 -48 0 -3 -3 -10 -7 -15 -3 -6 -5
-25 -4 -43 1 -17 -2 -32 -8 -32 -5 0 -1 -6 10 -14 18 -14 18 -15 1 -22 -15 -5
-16 -9 -5 -15 10 -7 10 -9 -2 -9 -13 0 -13 -1 0 -10 12 -8 12 -10 1 -10 -10 0
-11 -3 -2 -13 6 -8 8 -17 5 -20 -3 -3 -2 -12 2 -19 5 -7 7 -23 5 -35 -1 -13 3
-23 9 -23 6 0 9 -4 6 -9 -3 -5 4 -12 17 -16 29 -9 448 -12 453 -3 3 4 15 4 27
0 12 -5 159 -8 325 -7 231 1 308 -2 320 -12 12 -8 13 -12 4 -13 -8 0 -10 -5
-6 -12 12 -18 12 -48 1 -55 -5 -3 -4 -9 4 -13 10 -7 10 -11 0 -24 -11 -13 -11
-16 0 -16 11 0 11 -2 -1 -10 -12 -8 -12 -10 -1 -10 11 0 11 -3 0 -16 -10 -13
-10 -17 0 -24 11 -6 11 -9 0 -13 -11 -4 -11 -6 -1 -6 10 -1 10 -6 1 -22 -9
-17 -8 -20 3 -13 11 6 11 5 -1 -9 -9 -12 -10 -17 -2 -17 9 0 9 -5 0 -21 -9
-17 -8 -20 3 -13 11 6 11 5 0 -8 -10 -13 -10 -17 0 -22 11 -5 11 -7 0 -12 -10
-5 -10 -9 -1 -20 9 -11 9 -14 -1 -14 -10 0 -10 -3 0 -15 9 -11 9 -15 1 -15 -7
0 -10 -4 -7 -9 4 -6 -217 -9 -553 -9 -537 -1 -560 -1 -578 -20 -22 -23 -26
-36 -27 -84 -1 -21 -5 -38 -11 -38 -5 0 -3 -5 5 -10 8 -5 10 -10 4 -10 -7 0
-8 -17 -4 -50 4 -31 2 -51 -4 -54 -7 -3 -6 -5 1 -5 9 -1 10 -8 4 -24 -5 -14
-5 -30 0 -40 7 -11 6 -17 -1 -17 -6 0 -8 -5 -4 -12 11 -17 11 -58 1 -58 -4 0
-3 -9 3 -19 7 -14 6 -21 -3 -24 -9 -3 -9 -7 1 -19 9 -11 10 -18 2 -23 -6 -3
-7 -11 -3 -18 10 -16 10 -57 0 -57 -4 0 -3 -9 3 -19 7 -14 7 -20 -2 -23 -8 -3
-8 -10 1 -26 8 -15 8 -22 1 -22 -6 0 -8 -5 -4 -12 11 -17 11 -58 1 -58 -4 0
-3 -9 3 -19 7 -14 7 -20 -2 -23 -8 -3 -8 -10 1 -26 8 -15 8 -22 1 -22 -6 0 -8
-5 -4 -12 11 -17 11 -58 1 -58 -4 0 -3 -9 3 -20 6 -11 7 -20 2 -20 -10 0 -8
-42 3 -59 3 -6 0 -11 -7 -11 -9 0 -9 -3 2 -10 13 -9 13 -10 0 -10 -13 0 -13
-1 0 -10 13 -9 13 -10 0 -10 -13 0 -13 -1 0 -10 13 -9 13 -10 0 -10 -13 0 -13
-1 0 -10 12 -8 12 -10 1 -10 -9 0 -10 -4 -4 -12 5 -7 8 -23 7 -35 0 -13 3 -23
9 -23 6 0 8 -3 4 -6 -3 -3 4 -17 17 -30 l22 -24 919 2 919 3 20 35 c21 35 21
45 21 983 0 521 -3 947 -7 947 -4 0 -8 7 -8 15 0 8 -5 15 -10 15 -6 0 -9 6 -8
13 2 7 -8 12 -24 12 -16 -1 -28 2 -28 5 0 7 -73 5 -86 -3 -6 -3 -14 -3 -18 0
-10 10 -46 11 -46 1 0 -5 -6 -6 -12 -2 -18 11 -48 12 -48 2 0 -5 -6 -6 -12 -1
-17 10 -69 11 -90 0 -10 -4 -18 -4 -18 1 0 9 -53 8 -69 -3 -6 -3 -11 -3 -11 2
0 4 -18 8 -40 8 -22 0 -40 -4 -40 -9 0 -5 -6 -4 -12 2 -7 5 -22 6 -33 2 -11
-4 -29 -4 -41 0 -11 5 -27 4 -34 0 -8 -5 -21 -5 -30 0 -9 5 -22 5 -30 0 -8 -5
-21 -5 -29 -1 -20 9 -83 7 -99 -3 -7 -4 -12 -3 -12 1 0 10 -41 10 -57 0 -7 -4
-14 -3 -17 2 -3 5 -21 6 -40 1 -19 -4 -37 -5 -40 -3 -9 9 -86 9 -86 0 0 -4 -6
-5 -12 0 -19 11 -37 12 -44 2 -3 -5 -11 -6 -17 -2 -18 11 -47 11 -47 0 0 -6
-5 -6 -12 -1 -15 11 -78 11 -96 0 -6 -4 -12 -3 -12 1 0 10 -53 9 -69 -2 -6 -3
-11 -3 -11 2 0 10 -62 9 -78 -1 -7 -4 -12 -3 -12 2 0 10 -30 9 -48 -2 -6 -4
-12 -3 -12 2 0 5 -12 7 -27 5 -16 -2 -34 -4 -40 -4 -12 1 -21 1 -55 1 -7 0
-31 1 -53 3 -22 2 -48 -1 -57 -5 -9 -4 -18 -4 -20 1 -2 6 -11 5 -23 -1z m758
-1181 c-4 -6 -1 -7 8 -1 20 12 160 13 152 1 -4 -6 -1 -7 8 -1 17 10 189 13
183 3 -2 -4 2 -10 8 -13 10 -5 10 -7 0 -12 -10 -5 -10 -9 -1 -20 9 -11 8 -14
-2 -14 -11 0 -11 -2 1 -10 8 -5 11 -10 5 -10 -5 0 -10 -11 -10 -25 0 -14 4
-25 9 -25 5 0 3 -7 -4 -15 -10 -12 -10 -15 0 -15 10 0 10 -3 0 -15 -10 -12
-10 -15 0 -15 10 0 10 -3 0 -15 -10 -12 -10 -15 0 -15 10 0 10 -3 0 -15 -9
-10 -9 -15 -1 -15 6 0 11 -5 11 -11 0 -5 -4 -8 -8 -5 -4 2 -8 -4 -8 -14 0 -10
3 -17 7 -15 8 5 3 -40 -6 -54 -3 -6 -1 -11 6 -11 8 0 8 -4 -1 -15 -10 -12 -10
-15 0 -15 9 0 10 -3 1 -13 -6 -8 -8 -17 -4 -21 14 -13 9 -45 -7 -49 -9 -2 -58
-4 -108 -3 -51 1 -92 -2 -92 -6 0 -5 -9 -3 -20 4 -17 11 -22 10 -30 -2 -5 -8
-10 -10 -10 -4 0 7 -20 10 -57 8 -31 -2 -62 1 -67 5 -7 6 -11 87 -10 238 1
125 2 230 3 233 1 3 12 6 26 6 15 1 22 -2 18 -9z"/>
<path d="M19445 11768 c-24 -13 -59 -48 -48 -48 4 0 4 -4 -2 -8 -5 -4 -15 -20
-20 -37 -15 -45 -13 -1837 2 -1842 7 -3 10 -10 7 -16 -2 -7 9 -27 25 -45 l30
-32 310 0 c212 0 311 3 311 11 0 5 3 8 8 6 4 -3 13 1 20 9 7 8 10 14 6 14 -3
0 -1 6 5 13 6 8 7 17 3 21 -4 4 -1 6 7 4 10 -2 14 8 15 32 0 19 5 38 11 42 6
5 4 8 -5 8 -11 1 -10 4 4 15 11 8 15 15 9 15 -6 0 -10 19 -9 50 2 27 -1 47 -5
44 -4 -2 -4 8 0 24 5 17 5 36 -1 47 -6 10 -6 15 -2 12 11 -6 9 216 -2 234 -4
7 -3 10 2 6 11 -6 10 216 -2 234 -4 7 -3 10 2 6 12 -7 11 134 -1 153 -5 8 -4
11 1 7 11 -6 10 216 -2 234 -4 7 -3 10 2 6 11 -6 10 216 -2 234 -4 7 -3 10 2
6 12 -7 11 134 -1 153 -5 8 -4 11 1 7 10 -6 10 186 0 260 -6 41 -20 76 -41 98
-15 15 -62 35 -69 28 -8 -9 -66 -9 -66 -1 0 4 -13 3 -30 -2 -16 -5 -30 -5 -30
-2 0 9 -69 7 -77 -2 -3 -3 -14 -1 -24 5 -11 5 -19 6 -19 2 0 -4 -11 -8 -25 -8
-14 0 -25 4 -25 8 0 4 -10 2 -22 -4 -13 -7 -24 -11 -25 -10 -9 8 -63 18 -63
11 0 -4 -12 -5 -27 -1 -15 4 -46 4 -70 1 -23 -4 -44 -3 -45 1 -2 4 -12 3 -23
-3z"/>
<path d="M20272 11735 c-17 -14 -24 -32 -25 -62 -1 -24 -6 -43 -10 -43 -4 0
-3 -9 3 -20 8 -15 8 -20 -1 -20 -8 0 -9 -4 0 -13 6 -8 8 -17 4 -20 -9 -10 -9
-77 0 -77 5 0 5 -6 1 -12 -12 -19 -12 -48 0 -48 6 0 5 -4 -2 -9 -17 -10 -17
-22 -1 -32 10 -6 10 -11 0 -22 -8 -11 -9 -17 -1 -22 8 -5 8 -10 0 -20 -8 -9
-8 -15 0 -20 7 -4 7 -12 0 -26 -8 -14 -7 -19 2 -19 8 0 9 -3 3 -8 -14 -9 -13
-75 0 -84 7 -5 7 -8 0 -8 -5 0 -10 -11 -10 -25 0 -14 5 -25 10 -25 6 0 4 -4
-3 -9 -17 -10 -17 -22 -1 -32 10 -6 10 -11 0 -22 -8 -11 -9 -17 -1 -22 8 -5 8
-11 1 -19 -7 -9 -7 -16 1 -24 7 -7 8 -12 2 -12 -6 0 -11 -7 -11 -15 0 -8 5
-15 11 -15 8 0 8 -3 1 -8 -14 -9 -13 -75 0 -84 7 -5 7 -8 0 -8 -5 0 -10 -11
-10 -25 0 -14 5 -25 10 -25 6 0 4 -4 -3 -9 -17 -10 -17 -22 -1 -32 10 -6 10
-11 0 -22 -8 -11 -9 -17 -1 -22 8 -5 8 -10 0 -20 -8 -9 -8 -15 0 -20 7 -4 7
-12 0 -26 -8 -14 -7 -19 2 -19 8 0 9 -3 3 -8 -14 -9 -13 -75 0 -84 7 -5 7 -8
0 -8 -5 0 -10 -11 -10 -25 0 -14 5 -25 10 -25 6 0 4 -4 -3 -9 -17 -10 -17 -22
-1 -32 10 -6 10 -11 0 -22 -8 -10 -9 -17 -1 -22 7 -4 7 -12 0 -25 -7 -13 -6
-20 3 -23 9 -4 9 -6 -1 -6 -9 -1 -10 -6 -2 -20 6 -12 6 -22 1 -25 -10 -7 -9
-25 2 -43 4 -6 3 -14 -3 -18 -6 -4 -7 -13 -1 -23 6 -11 6 -24 0 -35 -7 -12 -6
-17 3 -17 10 0 10 -2 0 -9 -17 -10 -17 -22 -1 -32 10 -6 10 -11 0 -22 -8 -10
-9 -17 -1 -22 7 -4 7 -12 0 -25 -13 -24 -13 -33 1 -24 8 4 8 0 0 -15 -9 -16
-9 -21 1 -21 8 0 9 -3 3 -8 -14 -10 -17 -32 -7 -46 4 -6 8 -30 7 -53 0 -24 3
-43 8 -43 4 0 7 -6 7 -12 0 -7 11 -25 24 -40 l23 -28 314 0 314 0 25 32 c14
17 25 34 26 37 0 3 4 14 9 24 10 23 13 397 3 397 -4 0 -4 10 0 23 4 12 6 36 5
52 -4 39 -4 35 -1 138 2 49 0 91 -4 94 -5 2 -4 12 2 22 5 10 6 21 2 25 -11 12
19 24 46 20 14 -3 29 1 33 8 5 8 9 9 9 2 0 -7 25 -11 70 -11 59 0 74 -4 93
-21 13 -12 29 -22 36 -22 7 0 10 -4 7 -8 -3 -5 8 -16 25 -26 16 -9 29 -22 29
-27 0 -6 5 -7 10 -4 6 3 10 2 10 -4 0 -5 9 -13 21 -16 14 -5 19 -13 16 -26 -3
-11 0 -19 6 -19 8 0 9 -3 2 -8 -11 -7 -13 -68 -2 -78 3 -4 2 -15 -4 -25 -7
-14 -6 -19 3 -19 8 0 9 -3 3 -8 -5 -4 -10 -14 -10 -22 0 -8 5 -18 10 -22 6 -5
6 -8 -1 -8 -7 0 -10 -14 -7 -36 3 -27 0 -34 -9 -29 -7 4 -4 -1 6 -9 11 -9 16
-16 10 -16 -5 0 -9 -11 -9 -25 0 -14 4 -25 8 -25 4 0 3 -9 -3 -19 -7 -14 -6
-21 3 -24 9 -4 9 -6 -1 -6 -7 -1 -10 -6 -7 -11 4 -6 1 -18 -7 -27 -11 -14 -11
-16 1 -8 11 6 13 4 8 -8 -3 -10 -3 -17 2 -17 4 0 5 -20 1 -45 -4 -29 -3 -46 4
-49 8 -3 8 -5 0 -5 -21 -2 -5 -94 21 -118 24 -23 25 -23 360 -23 229 0 335 3
335 11 0 5 5 7 10 4 6 -3 10 1 10 10 0 9 5 13 10 10 7 -4 10 115 10 350 0 217
-4 354 -9 350 -5 -3 -17 5 -25 17 -9 12 -16 18 -16 13 0 -5 -7 1 -16 13 -8 12
-20 22 -26 22 -6 0 -18 8 -27 18 -9 10 -25 22 -35 25 -29 11 -13 19 46 22 29
1 60 5 69 9 36 16 39 59 39 573 0 435 -2 504 -16 531 -8 18 -23 32 -32 33 -9
1 -424 2 -922 3 -891 1 -905 1 -928 -19z m898 -345 c9 6 17 5 21 -2 4 -7 12
-7 26 0 11 6 25 7 33 2 8 -5 19 -5 25 0 6 5 17 5 25 0 8 -5 21 -5 32 1 12 6
18 6 18 0 0 -6 12 -8 29 -5 28 6 29 5 27 -27 -1 -19 2 -44 6 -56 4 -13 4 -23
0 -23 -5 0 -7 -30 -5 -66 3 -50 0 -64 -9 -59 -7 4 -6 1 2 -7 17 -15 15 -69 -3
-80 -9 -6 -9 -8 1 -8 6 0 12 -7 12 -16 0 -9 -5 -13 -12 -9 -7 4 -6 1 2 -7 20
-16 14 -48 -8 -49 -94 -6 -379 -2 -388 6 -7 5 -9 19 -5 30 4 11 6 100 5 197
l-2 177 62 3 c33 2 68 0 77 -4 8 -4 21 -3 29 2z"/>
</g>
</svg>
